<?xml version="1.0" encoding="UTF-8" standalone="no"?>
<!--part of the matt icon theme by sixsixfive released under CC0 (https://creativecommons.org/publicdomain/zero/1.0/) on openclipart-->
<svg xmlns="http://www.w3.org/2000/svg" xmlns:xlink="http://www.w3.org/1999/xlink" viewBox="0 0 128 128">
 <defs id="0">
  <linearGradient id="7">
   <stop id="F" stop-color="#fff"/>
   <stop id="G" offset="1" stop-color="#fff" stop-opacity="0"/>
  </linearGradient>
  <linearGradient id="8">
   <stop id="H" stop-color="#eb7331"/>
   <stop id="I" offset="1" stop-color="#cf4913"/>
  </linearGradient>
  <linearGradient id="9">
   <stop id="J"/>
   <stop id="K" offset="1" stop-opacity="0"/>
  </linearGradient>
  <radialGradient cx="68.01" cy="124.75" r="39.585" id="A" xlink:href="#9" gradientUnits="userSpaceOnUse" gradientTransform="matrix(1,0,0,0.06153846,0,117.07494)"/>
  <filter x="-0.035" y="-0.573" width="1.07" height="2.145" color-interpolation-filters="sRGB" id="B">
   <feGaussianBlur id="L" stdDeviation="1.16249"/>
  </filter>
  <linearGradient y1="3.565" x2="0" y2="9.54" id="C" xlink:href="#7" gradientUnits="userSpaceOnUse"/>
  <linearGradient y1="33.954" x2="0" y2="46.44" id="D" xlink:href="#7" gradientUnits="userSpaceOnUse" gradientTransform="matrix(1.0513598,0,0,1.117578,3.6983038,-3.0353842)"/>
  <linearGradient y1="1.581" x2="0" y2="122.44" id="E" xlink:href="#8" gradientUnits="userSpaceOnUse"/>
 </defs>
 <path d="m 107.59064,124.75198 a 39.585236,2.4360147 0 1 1 -79.170466,0 39.585236,2.4360147 0 1 1 79.170466,0 z" transform="matrix(0.8897751,0,0,1.038071,5.765494,-10.755157)" id="1" opacity="0.43" fill="url(#A)" filter="url(#B)"/>
 <path d="m 47.40625,6 c -0.343161,0.0057 -0.665838,0.033065 -1.03125,0.0625 -0.177716,0.014316 -0.321558,0.036698 -0.46875,0.0625 -0.04139,0.00298 -0.08709,-0.00809 -0.15625,0 -0.01577,0.00185 -0.04562,0.029078 -0.0625,0.03125 -0.190299,0.024491 -0.438896,0.039118 -0.75,0.15625 -0.0045,0.0017 -0.444833,0.2021495 -0.84375,0.46875 -0.571384,0.381862 -0.939049,0.8674748 -1.21875,1.3125 -0.313319,0.4985184 -0.582871,1.0749634 -0.65625,1.78125 -0.02713,0.261166 -0.03895,0.461691 -0.03125,0.625 0.0033,0.07022 0.02536,0.128094 0.03125,0.1875 9.59e-4,0.0097 -0.001,0.02156 0,0.03125 0.0037,0.03461 -0.01534,0.0607 0,0.15625 0.0038,0.02389 0.03118,0.124684 0.03125,0.125 3.4e-5,1.58e-4 0.06248,0.249924 0.0625,0.25 10e-7,4e-6 0.02768,0.05745 0.03125,0.0625 0.01058,0.03589 0.02046,0.09192 0.03125,0.125 0.0082,0.02524 0.02305,0.06994 0.03125,0.09375 0.03607,0.104697 0.04351,0.202842 0.09375,0.3125 0.03035,0.115034 -0.0094,0.06391 0.0625,0.25 0.174799,0.452289 0.328828,0.702109 0.4375,0.9375 0.306291,0.663446 0.714788,1.530518 1.21875,2.53125 1.003118,1.991923 2.333126,4.51761 3.6875,7.09375 1.353108,2.573731 2.732357,5.181236 3.78125,7.15625 0.524432,0.98748 0.966929,1.848225 1.28125,2.4375 0.15716,0.294638 0.289337,0.527162 0.375,0.6875 0.08566,0.160338 0.258854,0.472087 0.125,0.21875 -0.07143,-0.135193 2.81447,5.342901 5.53125,10.46875 1.351645,2.550196 2.690669,5.183035 3.78125,7.15625 0.556229,1.006395 1.058968,1.7943 1.40625,2.375 0.188831,0.315745 0.333705,0.587992 0.53125,0.875 -0.283093,-0.411287 0.09795,0.175636 0.40625,0.53125 -0.0035,-0.0041 0.10382,0.100612 0.125,0.125 0.103045,0.136569 0.149321,0.145945 0.1875,0.1875 0.07636,0.08311 0.134846,0.174925 0.21875,0.25 A 2.4885215,2.4885215 0 0 0 65.875,55.25 c 0.142769,0.114101 0.273745,0.223502 0.5,0.34375 0.512385,0.272317 1.138521,0.474705 1.8125,0.5 0.678006,0.02545 1.430742,-0.08132 2.15625,-0.46875 0.324493,-0.173283 0.487187,-0.318568 0.65625,-0.46875 0.03372,-0.02662 0.06627,-0.04112 0.09375,-0.0625 0.0916,-0.08404 0.13983,-0.130144 0.3125,-0.34375 0.04006,-0.04047 0.07066,-0.0349 0.125,-0.09375 a 2.4885215,2.4885215 0 0 0 0.03125,0 c 0.287036,-0.310869 0.423842,-0.524137 0.5,-0.625 0.266722,-0.353236 0.482379,-0.711746 0.78125,-1.15625 0.638509,-0.94964 1.432826,-2.204436 2.3125,-3.59375 1.081197,-1.707592 2.313469,-3.68355 3.5,-5.59375 C 86.067827,48.501299 91.125,56.537572 91.125,66.03125 91.124997,81.082017 79.019506,93.1875 63.96875,93.1875 48.917988,93.187498 36.8125,81.082012 36.8125,66.03125 c -10e-7,-6.194532 2.113934,-11.815323 5.65625,-16.4375 0.600895,-0.784636 1.058146,-1.842971 0.875,-3.125 -0.167422,-1.172042 -0.776175,-2.090778 -1.65625,-2.75 l 0,-0.03125 c -0.01151,-0.0086 -0.01978,0.0085 -0.03125,0 -3.573051,-2.660235 -5.436971,-4.011661 -6.3125,-4.65625 -0.450071,-0.331358 -0.647253,-0.487228 -0.84375,-0.625 0.114806,0.08049 -0.127721,-0.06135 -0.125,-0.0625 5.3e-5,4.5e-5 -0.0922,-0.04563 -0.15625,-0.09375 0,0 -0.03666,-0.04729 -0.0625,-0.0625 -0.04962,-0.03235 -0.01199,-7.9e-4 -0.0625,-0.03125 -0.01774,-0.01149 -0.0185,-0.02336 -0.03125,-0.03125 -0.139372,-0.115445 -0.28221,-0.246749 -0.5,-0.40625 -0.876084,-0.641612 -2.675264,-1.970127 -6.25,-4.625 -1.545395,-1.134637 -3.55994,-0.914514 -4.96875,0.1875 A 2.4885215,2.4885215 0 0 0 21.5,33.96875 c -6.725581,8.910984 -10.90625,19.973809 -10.90625,32.0625 0,29.430656 23.944343,53.375 53.375,53.375 29.430515,0 53.4375,-23.93853 53.4375,-53.375 0,-18.857689 -10.07376,-35.126007 -24.875,-44.53125 0.836951,-1.315112 1.711819,-2.724021 2.375,-3.78125 0.618799,-0.986476 1.198381,-1.836289 1.625,-2.5625 0.227305,-0.38693 0.380386,-0.701585 0.5,-0.9375 -0.04967,0.09796 0.08367,-0.176353 0.125,-0.25 0.03544,-0.06067 0.04826,-0.09723 0.0625,-0.125 0.02847,-0.05553 0.0502,-0.06671 0.0625,-0.09375 0.031,-0.06816 0.04436,-0.10877 0.0625,-0.15625 0.01065,-0.02787 0.02032,-0.06326 0.03125,-0.09375 0.02085,-0.0582 0.04173,-0.150422 0.0625,-0.21875 0.009,-0.02961 0.02244,-0.062 0.03125,-0.09375 0.03514,-0.102109 0.03548,-0.19975 0.0625,-0.3125 a 2.4885215,2.4885215 0 0 0 0.03125,-0.25 C 97.596795,12.436953 97.660282,12.271716 97.65625,12 97.646868,11.367811 97.449057,10.707039 97.125,10.09375 96.792574,9.4645637 96.394814,8.9568432 95.8125,8.5625 95.559962,8.3914811 95.337478,8.2968707 95.15625,8.21875 c -0.09061,-0.03906 -0.157238,-0.084772 -0.28125,-0.125 -0.02371,-0.00769 -0.05715,-0.02078 -0.09375,-0.03125 -0.0095,-0.00388 -0.02137,0.00395 -0.03125,0 -0.114254,-0.045687 -0.153808,-0.081746 -0.3125,-0.125 -0.25752,-0.070186 -0.472368,-0.079743 -0.6875,-0.09375 2.59e-4,4.04e-5 -0.206384,-0.024183 -0.34375,-0.03125 -0.199752,-0.033123 -0.368197,-0.064579 -0.6875,-0.09375 -0.731406,-0.06682 -1.635045,-0.1237739 -2.75,-0.1875 C 87.750438,7.4044625 84.851253,7.2403906 81.9375,7.125 79.02349,7.0095997 76.097693,6.9161067 73.875,6.84375 72.772677,6.8078654 71.807941,6.7709644 71.125,6.75 c -0.33277,-0.010215 -0.595204,0.00538 -0.78125,0 -0.09302,-0.00269 -0.17042,-0.029902 -0.21875,-0.03125 -0.02416,-6.739e-4 -0.01834,3.46e-4 -0.03125,0 -7e-5,-2.6e-6 -0.150987,2.157e-4 -0.15625,0 C 69.814138,6.7136932 68.420907,6.6501302 66.28125,6.5625 64.050182,6.471126 61.12773,6.3516696 58.21875,6.25 55.327437,6.1489475 52.403545,6.0391334 50.15625,6 c -1.139322,-0.019839 -2.054381,-0.01156 -2.75,0 z m -14.375,31.8125 c 0.0064,-7.36e-4 0.06256,7e-6 0.0625,0 -3.9e-4,-4.2e-5 0.191914,0.02984 0.34375,0.0625 0.06924,0.0149 0.110476,0.01647 0.15625,0.03125 0.11912,0.03845 0.191068,0.08155 0.28125,0.125 0.02046,0.0099 0.04343,0.02143 0.0625,0.03125 l 0,0.03125 c -0.119536,-0.06241 -0.34319,-0.10257 -0.53125,-0.15625 -0.134171,-0.0383 -0.204446,-0.109704 -0.375,-0.125 z M 32.5625,37.875 c -0.415633,0.07256 -0.882345,0.190335 -1.03125,0.28125 0.133437,-0.07014 0.469562,-0.21903 0.46875,-0.21875 -4.74e-4,1.63e-4 0.287313,-0.03131 0.5625,-0.0625 z" id="2" fill="#ac4311"/>
 <path d="m 45.375,1.59375 c -0.379117,0.0063 -0.646206,0.010302 -0.90625,0.03125 -0.123421,0.00994 -0.282936,0.00126 -0.4375,0.03125 -0.0683,0.013253 -0.144092,0.01086 -0.28125,0.0625 -0.05985,0.022535 -0.15099,0.072955 -0.28125,0.15625 -0.13026,0.083295 -0.274962,0.2101389 -0.4375,0.46875 -0.162564,0.2586529 -0.232574,0.4473762 -0.25,0.59375 -0.01743,0.1463738 -0.0056,0.2496737 0,0.3125 0.01388,0.1553561 0.07989,0.2286487 0.09375,0.28125 0.03671,0.139378 0.04412,0.2778217 0.09375,0.40625 0.09515,0.2462177 0.247863,0.5319241 0.40625,0.875 0.318378,0.6896287 0.788445,1.6160647 1.34375,2.71875 1.110343,2.2048444 2.607043,5.050211 4.125,7.9375 3.036007,5.774753 6.199096,11.716154 6.25,11.8125 0.02074,0.03925 0.777666,1.542777 1.9375,3.75 1.159834,2.207223 2.724663,5.122092 4.25,8 1.525269,2.877776 3.05761,5.780079 4.25,7.9375 0.596212,1.078749 1.110498,1.973704 1.5,2.625 0.194336,0.324952 0.351565,0.596842 0.5,0.8125 0.07781,0.113053 0.155506,0.172254 0.25,0.28125 0.04093,0.04721 0.07032,0.122468 0.1875,0.21875 0.05054,0.04153 0.112492,0.119872 0.25,0.1875 0.137508,0.06763 0.351313,0.144806 0.65625,0.15625 0.364852,0.0137 0.585738,-0.04885 0.71875,-0.125 0.133012,-0.07615 0.17448,-0.183807 0.21875,-0.21875 0.116514,-0.09197 0.187289,-0.150835 0.25,-0.21875 0.122571,-0.132744 0.199894,-0.257116 0.3125,-0.40625 0.228531,-0.302663 0.511473,-0.693313 0.84375,-1.1875 0.664197,-0.987844 1.539036,-2.370445 2.53125,-3.9375 1.76887,-2.793666 3.863894,-6.190423 5.75,-9.21875 10.816473,5.607748 18.28125,16.753673 18.28125,29.78125 C 97.781249,84.411866 82.661795,99.5625 63.96875,99.5625 45.275701,99.562497 30.125,84.411801 30.125,65.71875 c 1e-6,-7.723928 2.7146,-14.754633 7.09375,-20.46875 0.228703,-0.298636 0.334168,-0.660824 0.28125,-1.03125 -0.05304,-0.371263 -0.25883,-0.714482 -0.5625,-0.9375 -4.029568,-3.000386 -6.048152,-4.471957 -7.0625,-5.21875 -0.507212,-0.373425 -0.785777,-0.581121 -0.9375,-0.6875 -0.07222,-0.05064 -0.05925,-0.05312 -0.1875,-0.125 -0.01847,-0.01035 -0.04718,-0.02327 -0.0625,-0.03125 -0.09791,-0.06816 -0.324936,-0.267925 -0.8125,-0.625 -0.999407,-0.73193 -3.04269,-2.202081 -7.0625,-5.1875 -0.613923,-0.450744 -1.44545,-0.357916 -1.90625,0.25 -7.165802,9.494249 -11.625,21.235104 -11.625,34.0625 0,31.294068 25.393397,56.71875 56.6875,56.71875 31.29411,0 56.75,-25.422917 56.75,-56.71875 0,-21.21019 -11.86862,-39.377322 -29.15625,-49.03125 1.575437,-2.498357 3.165417,-5.040458 4.375,-6.96875 0.707503,-1.1278905 1.33387,-2.104146 1.75,-2.8125 0.208513,-0.3549457 0.344344,-0.6296345 0.46875,-0.875 0.06062,-0.1195546 0.162506,-0.2246497 0.21875,-0.375 0.02475,-0.066173 0.06535,-0.1622342 0.09375,-0.3125 C 98.480394,5.2821485 98.498256,5.1883212 98.5,5.03125 98.501744,4.8741788 98.460736,4.6555391 98.3125,4.375 98.169341,4.1040412 98.03433,3.9625117 97.90625,3.875 97.77817,3.7874883 97.680223,3.7443817 97.625,3.71875 97.491193,3.6566424 97.380873,3.6436351 97.3125,3.625 97.163778,3.5844651 97.061986,3.5819316 96.9375,3.5625 96.67825,3.5220321 96.377142,3.5032047 96,3.46875 95.24347,3.3996356 94.200924,3.320425 92.96875,3.25 90.504835,3.1091748 87.290029,2.972804 84.03125,2.84375 80.772411,2.7146936 77.475616,2.6156341 74.96875,2.53125 72.461884,2.4468659 70.738595,2.3769179 70.6875,2.375 70.565102,2.3704059 63.888259,2.10264 57.375,1.875 54.118576,1.7611872 50.872099,1.6366891 48.40625,1.59375 c -1.233203,-0.021474 -2.272578,-0.012608 -3.03125,0 z" transform="matrix(0.8897751,0,0,0.8897751,7.0543937,7.5432102)" id="3" fill="url(#E)"/>
 <path d="m 44.9375,2.875 a 0.75730767,0.75730767 0 0 0 -0.53125,1.0625 c 0.07241,0.1517628 0.08914,0.1671342 0.15625,0.3125 0.313323,0.6786788 0.733469,1.5997565 1.28125,2.6875 1.100266,2.1848351 2.605978,5.016934 4.125,7.90625 3.033867,5.770683 6.096341,11.521667 6.25,11.8125 0.101906,0.192862 0.809445,1.543783 1.96875,3.75 1.159268,2.206146 2.69441,5.123974 4.21875,8 1.527014,2.881068 3.069552,5.801686 4.25,7.9375 0.58579,1.059892 1.050197,1.914883 1.4375,2.5625 0.107595,0.17991 0.157423,0.262638 0.1875,0.3125 A 0.75730767,0.75730767 0 0 0 69.5625,49.25 c 0.182426,-0.247798 0.349217,-0.480062 0.59375,-0.84375 0.648593,-0.964635 1.50888,-2.372175 2.5,-3.9375 1.770639,-2.796459 3.919792,-6.211185 5.8125,-9.25 0.351392,-0.52463 1.031789,-0.732519 1.59375,-0.4375 a 0.75730767,0.75730767 0 0 0 0,0.03125 c 11.238005,5.808759 19,17.37492 19,30.90625 -10e-7,19.382309 -15.710053,35.125 -35.09375,35.125 -19.383757,0 -35.125,-15.74124 -35.125,-35.125 1e-6,-7.786085 2.700005,-14.90046 7,-20.71875 A 0.75730767,0.75730767 0 0 0 35.6875,43.96875 c -3.513945,-2.612803 -5.638485,-4.202955 -6.59375,-4.90625 -0.502926,-0.37027 -0.708506,-0.539514 -0.875,-0.65625 -0.03942,-0.02764 -0.102596,-0.06424 0,0.03125 0.01282,0.01194 0.06292,0.063 0.0625,0.0625 -2.08e-4,-2.49e-4 0.06261,0.09393 0.0625,0.09375 -5.4e-5,-9.1e-5 0.06253,0.09382 0.0625,0.09375 -3e-5,-7.4e-5 0.06251,0.187559 0.0625,0.1875 -7e-6,-5.9e-5 -0.06252,0.343793 -0.0625,0.34375 1.6e-5,-4.3e-5 -0.250038,0.375028 -0.25,0.375 3.8e-5,-2.8e-5 -0.281309,0.125014 -0.28125,0.125 5.9e-5,-1.4e-5 -0.18758,-10e-7 -0.1875,0 1.6e-4,10e-7 -0.156489,-5.5e-5 -0.15625,0 2.39e-4,5.5e-5 -0.04562,-0.02551 -0.0625,-0.03125 -0.13501,-0.04596 -0.118333,-0.02757 -0.125,-0.03125 -0.01333,-0.0074 0.01234,-0.02327 0,-0.03125 -0.0031,-0.002 -0.01359,0.01261 -0.03125,0 -0.0088,-0.0063 -0.06276,-0.06273 -0.0625,-0.0625 1.3e-4,1.13e-4 -0.125043,-0.125063 -0.125,-0.125 0,0 -0.03125,-0.09375 -0.03125,-0.09375 0,0 -0.0625,-0.15625 -0.0625,-0.15625 0,0 0.71875,-0.1875 0.71875,-0.1875 -4.8e-5,-1e-5 0.250072,-0.718726 0.25,-0.71875 -0.01082,-0.0063 -0.02063,-0.02458 -0.03125,-0.03125 -0.0085,-0.0059 -0.02307,0.0057 -0.03125,0 -0.349564,-0.244682 -0.398109,-0.329876 -0.84375,-0.65625 -0.905365,-0.663056 -3.074128,-2.21213 -6.5,-4.75 A 0.75730767,0.75730767 0 0 0 19.53125,33 C 12.759594,42.191329 8.5625,53.428851 8.5625,65.71875 c 0,30.602354 24.804699,55.4375 55.40625,55.4375 30.601645,0 55.46875,-24.834978 55.46875,-55.4375 0,-20.748873 -11.60376,-38.532397 -28.53125,-47.96875 -0.289445,-0.161343 -0.543256,-0.464936 -0.625,-0.78125 -0.08174,-0.316317 8.6e-4,-0.637466 0.1875,-0.9375 l -0.03125,0 c 1.583262,-2.51074 3.222747,-5.063466 4.4375,-7 0.710615,-1.1328505 1.32372,-2.108814 1.71875,-2.78125 0.0883,-0.1503116 0.132839,-0.2720509 0.1875,-0.375 A 0.75730767,0.75730767 0 0 0 96.1875,4.78125 C 96.081498,4.771741 96.04054,4.7651232 95.875,4.75 95.139363,4.6827943 94.095658,4.6010167 92.875,4.53125 90.427652,4.3913716 87.225424,4.2539707 83.96875,4.125 80.711398,3.9960025 77.439601,3.8967238 74.9375,3.8125 72.435415,3.7282768 70.982362,3.6684908 70.65625,3.65625 70.379223,3.6458521 63.852482,3.3837319 57.34375,3.15625 54.084516,3.0423389 50.817664,2.9175354 48.375,2.875 c -1.214573,-0.02115 -2.219477,-0.012452 -2.96875,0 -0.131399,0.00218 -0.203726,-0.00354 -0.34375,0 a 0.75730767,0.75730767 0 0 0 -0.125,0 z" transform="matrix(0.8897751,0,0,0.8897751,7.0543937,7.5432102)" id="4" opacity="0.601" fill="none" stroke="url(#C)" stroke-linejoin="round" stroke-linecap="round" stroke-width="2.675"/>
 <path d="m 25.021195,34.927342 c -0.369941,0.05899 -0.69827,0.2734 -0.919939,0.593713 -0.791369,1.196928 -1.549547,2.412866 -2.266995,3.667052 l 2.628399,1.431897 c 0.400905,-0.692206 0.790928,-1.385113 1.215634,-2.060535 1.889316,1.477064 3.824869,3.017117 4.435426,3.492431 0.381023,0.296628 0.480997,0.394892 0.985649,0.768336 0.01077,0.01183 0.02172,0.02347 0.03286,0.03492 0.04263,0.0257 0.0865,0.04902 0.131419,0.06985 0.01184,0.01167 0.03254,0.03464 0.03286,0.03493 0.0086,0.005 0.02498,-0.0045 0.03286,0 0.02379,0.01726 0.104126,0.06113 0.164275,0.104772 0.02843,0.02063 0.06571,0.06985 0.06571,0.06985 -2.73e-4,0 0.03252,-5.61e-4 0.03285,0 9.46e-4,0.0016 0.06018,0.02927 0.06571,0.03492 0.05547,0.05674 0.17236,0.186719 0.558534,0.48894 0.711667,0.556947 2.761712,2.162437 4.895396,3.841675 -0.0051,0.0083 0.0051,0.02657 0,0.03492 l 2.431269,1.327124 c 0.186063,-0.301583 0.365766,-0.611686 0.558536,-0.908032 0.413821,-0.66083 0.269561,-1.55024 -0.328551,-2.02561 -2.787217,-2.197857 -5.053753,-3.971784 -5.913899,-4.644933 -0.382442,-0.2993 -0.367142,-0.355207 -0.6571,-0.593714 -0.01095,-1.36e-4 -0.0219,-1.36e-4 -0.03285,0 -0.01077,-0.01183 -0.02172,-0.02348 -0.03285,-0.03492 -0.05245,-0.03885 -0.107346,-0.07386 -0.164276,-0.104774 -0.01095,-1.35e-4 -0.0219,-1.35e-4 -0.03286,0 -0.02191,0.03322 -0.187711,0.260547 -0.361406,0.523865 l -0.262839,0.593713 c -0.0027,0.0079 -0.03087,0.02913 -0.03286,0.03493 -0.0051,0.0018 -0.02882,-0.0014 -0.03285,0 0.0023,-0.01877 0.028,-0.09979 0.03285,-0.139699 -0.03037,0.04605 -0.13142,0.174622 -0.13142,0.174622 l 0.13142,-0.24447 c 0.0029,-0.02342 -0.0033,-0.043 0,-0.06985 0.118278,-0.269296 0.218231,-0.517162 0.32855,-0.768334 -0.05241,0.163432 -0.08275,0.269679 -0.164274,0.523864 l 0.06571,-0.104773 c 0.106491,-0.310844 0.184649,-0.592196 0.197129,-0.628637 0.0094,0.0034 0.03286,0 0.03286,0 0,0 0.06301,0.01683 0.09857,0.03492 l 0,-0.03492 c -0.07682,-0.04506 -0.08503,-0.06214 -0.09857,-0.06985 0,0 -0.01931,0.006 -0.03286,0 -2.1e-4,-3.3e-5 -0.0012,-0.0358 0,-0.03492 -0.04263,-0.0257 -0.08649,-0.04902 -0.131421,-0.06985 -0.04263,-0.0257 -0.08649,-0.04901 -0.131418,-0.06985 -0.210031,-0.168574 -0.328614,-0.312407 -0.689955,-0.593714 -0.789131,-0.614327 -3.060225,-2.341495 -5.683915,-4.400462 -0.300331,-0.23708 -0.681407,-0.338381 -1.05136,-0.279394 z" id="5" opacity="0.538" fill="url(#D)"/>
 <path d="m 31.495403,42.216634 c -0.0498,0.134742 -0.1231,0.342915 -0.222443,0.61172 0.01997,-0.154307 0.0078,-0.179359 0.0278,-0.333666 l 0.194638,-0.278054 z" id="6" opacity="0.634" fill="#ac4311"/>
</svg>
